<svg width="26.000000" height="21.000000" viewBox="0 0 26 21" fill="none" xmlns="http://www.w3.org/2000/svg" xmlns:xlink="http://www.w3.org/1999/xlink">
	<desc>
			Created with Pixso.
	</desc>
	<defs/>
	<path id="Vector" d="M25.58 1.75C24.6 2.19 23.56 2.48 22.46 2.61C23.59 1.93 24.44 0.86 24.85 -0.4C23.78 0.24 22.61 0.68 21.4 0.92C20.58 0.05 19.49 -0.53 18.31 -0.73C17.13 -0.92 15.92 -0.72 14.86 -0.16C13.81 0.41 12.97 1.31 12.47 2.4C11.98 3.49 11.86 4.71 12.14 5.88C9.97 5.77 7.86 5.21 5.93 4.23C4 3.25 2.3 1.88 0.93 0.2C0.47 1 0.2 1.94 0.2 2.93C0.2 3.83 0.42 4.71 0.84 5.5C1.26 6.29 1.87 6.96 2.62 7.46C1.75 7.43 0.91 7.2 0.15 6.78L0.15 6.85C0.15 8.1 0.59 9.32 1.38 10.29C2.18 11.26 3.28 11.93 4.51 12.18C3.71 12.39 2.87 12.42 2.06 12.27C2.41 13.35 3.08 14.29 3.99 14.97C4.9 15.65 6 16.02 7.14 16.04C5.21 17.55 2.83 18.37 0.39 18.37C-0.05 18.37 -0.48 18.34 -0.91 18.29C1.57 19.89 4.46 20.74 7.42 20.74C17.42 20.74 22.88 12.45 22.88 5.27C22.88 5.04 22.88 4.8 22.87 4.57C23.93 3.8 24.85 2.85 25.58 1.76L25.58 1.75Z" fill="#B6CCDA" fill-opacity="1.000000" fill-rule="nonzero"/>
</svg>
