<svg width="50.000000" height="50.000000" viewBox="0 0 50 50" fill="none" xmlns="http://www.w3.org/2000/svg" xmlns:xlink="http://www.w3.org/1999/xlink">
	<desc>
			Created with Pixso.
	</desc>
	<defs>
		<clipPath id="clip1_8">
			<rect id="bi:apple" width="50.000000" height="50.000000" fill="white" fill-opacity="0"/>
		</clipPath>
	</defs>
	<rect id="bi:apple" width="50.000000" height="50.000000" fill="#FFFFFF" fill-opacity="0"/>
	<g clip-path="url(#clip1_8)">
		<path id="Vector" d="M34.94 0.02C34.83 -0.1 31 0.07 27.67 3.68C24.34 7.3 24.85 11.44 24.93 11.55C25 11.65 29.68 11.82 32.66 7.61C35.65 3.41 35.05 0.14 34.94 0.02ZM45.3 36.69C45.15 36.39 38.03 32.83 38.69 25.99C39.35 19.15 43.93 17.28 44 17.07C44.07 16.87 42.13 14.6 40.08 13.46C38.57 12.65 36.9 12.19 35.2 12.1C34.86 12.09 33.69 11.8 31.28 12.46C29.69 12.9 26.11 14.3 25.13 14.36C24.14 14.42 21.2 12.73 18.04 12.28C16.02 11.89 13.88 12.69 12.34 13.31C10.81 13.92 7.9 15.66 5.86 20.3C3.82 24.93 4.89 32.27 5.65 34.55C6.41 36.83 7.6 40.56 9.63 43.29C11.43 46.36 13.82 48.5 14.81 49.22C15.81 49.95 18.62 50.43 20.57 49.43C22.14 48.47 24.97 47.91 26.09 47.95C27.21 48 29.41 48.44 31.66 49.64C33.45 50.25 35.13 50 36.82 49.31C38.51 48.62 40.96 46 43.82 40.69C44.9 38.22 45.4 36.89 45.3 36.69Z" fill="#FFFFFF" fill-opacity="1.000000" fill-rule="nonzero"/>
		<path id="Vector" d="M34.94 0.02C34.83 -0.1 31 0.07 27.67 3.68C24.34 7.3 24.85 11.44 24.93 11.55C25 11.65 29.68 11.82 32.66 7.61C35.65 3.41 35.05 0.14 34.94 0.02ZM45.3 36.69C45.15 36.39 38.03 32.83 38.69 25.99C39.35 19.15 43.93 17.28 44 17.07C44.07 16.87 42.13 14.6 40.08 13.46C38.57 12.65 36.9 12.19 35.2 12.1C34.86 12.09 33.69 11.8 31.28 12.46C29.69 12.9 26.11 14.3 25.13 14.36C24.14 14.42 21.2 12.73 18.04 12.28C16.02 11.89 13.88 12.69 12.34 13.31C10.81 13.92 7.9 15.66 5.86 20.3C3.82 24.93 4.89 32.27 5.65 34.55C6.41 36.83 7.6 40.56 9.63 43.29C11.43 46.36 13.82 48.5 14.81 49.22C15.81 49.95 18.62 50.43 20.57 49.43C22.14 48.47 24.97 47.91 26.09 47.95C27.21 48 29.41 48.44 31.66 49.64C33.45 50.25 35.13 50 36.82 49.31C38.51 48.62 40.96 46 43.82 40.69C44.9 38.22 45.4 36.89 45.3 36.69Z" fill="#FFFFFF" fill-opacity="1.000000" fill-rule="nonzero"/>
	</g>
</svg>
