<svg width="24.000000" height="24.000000" viewBox="0 0 24 24" fill="none" xmlns="http://www.w3.org/2000/svg" xmlns:xlink="http://www.w3.org/1999/xlink">
	<desc>
			Created with Pixso.
	</desc>
	<defs>
		<clipPath id="clip1_23">
			<rect id="shopping-bag" width="24.000000" height="24.000000" fill="white" fill-opacity="0"/>
		</clipPath>
	</defs>
	<rect id="shopping-bag" width="24.000000" height="24.000000" fill="#FFFFFF" fill-opacity="0"/>
	<g clip-path="url(#clip1_23)">
		<path id="Vector" d="M3 6L3 20C3 20.53 3.21 21.03 3.58 21.41C3.96 21.78 4.46 22 5 22L19 22C19.53 22 20.03 21.78 20.41 21.41C20.78 21.03 21 20.53 21 20L21 6L18 2L6 2L3 6Z" stroke="#FFFFFF" stroke-opacity="1.000000" stroke-width="2.000000" stroke-linejoin="round"/>
		<path id="Vector" d="M3 6L21 6" stroke="#FFFFFF" stroke-opacity="1.000000" stroke-width="2.000000" stroke-linejoin="round" stroke-linecap="round"/>
		<path id="Vector" d="M16 10C16 11.06 15.57 12.07 14.82 12.82C14.07 13.57 13.06 14 12 14C10.93 14 9.92 13.57 9.17 12.82C8.42 12.07 8 11.06 8 10" stroke="#FFFFFF" stroke-opacity="1.000000" stroke-width="2.000000" stroke-linejoin="round" stroke-linecap="round"/>
	</g>
</svg>
